#format: frame checksums
#version: 2
#hash: MD5
#tb 0: 1001/30000
#media_type 0: video
#codec_id 0: rawvideo
#dimensions 0: 18x18
#sar 0: 1/1
#stream#, dts,        pts, duration,     size, hash
0,          0,          0,        1,      486, 83790b0e7004d8d89b7134ee1a88d885
0,          1,          1,        1,      486, 0baf0bf556ae56d2f4b04567e6ac7ed9
0,          2,          2,        1,      486, c648854a4d49f7e407a2450cf4ba292a
0,          3,          3,        1,      486, 510c3aca23339841ffc72ed5c75d184e
0,          4,          4,        1,      486, 1c1f3116ec4d4ee1ad790652e49233ad
0,          5,          5,        1,      486, f94891f4e16fd32d638a2c696f5922e6
0,          6,          6,        1,      486, e164814c22e38cbe45312dfd48d987fc
0,          7,          7,        1,      486, f582515fcc6c4308ad931d2f6cf371a0
0,          8,          8,        1,      486, 0a446974bd227ee34a1621a2b7852abb
0,          9,          9,        1,      486, beca28bdae8d1fe20036b3646f3109cd
